<?xml version="1.0" standalone="no"?>
<!DOCTYPE svg PUBLIC "-//W3C//DTD SVG 20010904//EN"
 "http://www.w3.org/TR/2001/REC-SVG-20010904/DTD/svg10.dtd">
<svg version="1.0" xmlns="http://www.w3.org/2000/svg"
 width="200.000000pt" height="200.000000pt" viewBox="0 0 200.000000 200.000000"
 preserveAspectRatio="xMidYMid meet">
<metadata>
Created by potrace 1.15, written by Peter Selinger 2001-2017
</metadata>
<g transform="translate(0.000000,200.000000) scale(0.100000,-0.100000)"
fill="#000000" stroke="none">
<path d="M841 1837 c-6 -8 -18 -61 -27 -118 l-16 -104 -47 -21 -46 -20 -81 63
c-45 35 -91 63 -102 63 -42 0 -232 -186 -232 -227 0 -8 29 -52 65 -98 l65 -83
-23 -49 -22 -50 -95 -13 c-145 -19 -140 -13 -140 -184 0 -115 3 -146 15 -156
8 -7 61 -19 118 -28 l103 -15 21 -53 21 -54 -59 -76 c-81 -105 -80 -112 27
-219 47 -47 96 -92 109 -101 29 -19 39 -14 141 63 l71 53 45 -20 c51 -22 50
-22 69 -148 6 -46 18 -90 26 -98 21 -21 285 -21 306 0 13 14 25 66 43 183 5
39 10 45 51 63 25 11 47 20 49 20 1 0 36 -26 76 -58 93 -74 102 -77 143 -52
47 29 195 188 195 209 0 10 -29 56 -64 101 l-64 83 20 48 c22 53 20 52 148 69
54 8 90 18 98 28 17 22 17 295 0 310 -7 5 -60 17 -117 26 -58 9 -106 17 -107
19 -1 1 -11 24 -23 51 l-21 49 60 78 c39 50 60 87 60 104 0 36 -182 225 -217
225 -14 0 -58 -25 -105 -61 -80 -61 -80 -61 -118 -49 -21 7 -43 16 -49 20 -7
3 -19 54 -28 111 -9 57 -20 110 -26 117 -14 18 -300 17 -316 -1z m194 -457
c21 -22 47 -40 56 -40 33 0 158 -71 194 -111 21 -23 51 -71 69 -108 28 -60 31
-75 30 -156 -2 -145 -55 -250 -161 -312 -42 -24 -44 -28 -38 -59 7 -38 5 -39
-45 -23 -19 5 -76 14 -126 19 -124 12 -192 40 -262 105 -128 119 -163 286 -88
432 37 73 86 124 178 186 46 30 94 67 107 81 14 14 30 26 36 26 6 0 29 -18 50
-40z"/>
<path d="M868 1255 c-57 -64 -104 -119 -105 -123 -2 -4 40 -38 92 -75 l95 -69
-81 -89 c-45 -49 -85 -92 -90 -95 -5 -3 -9 -9 -9 -15 0 -10 360 -193 366 -186
3 2 -18 41 -46 86 -28 46 -50 86 -48 91 2 4 58 56 126 115 68 59 122 111 120
115 -6 17 -299 360 -308 360 -5 0 -55 -52 -112 -115z"/>
</g>
</svg>
